<svg xmlns="http://www.w3.org/2000/svg" viewBox="0 0 1200 630" font-family="Arial, sans-serif">
  <!-- OGP画像プレビュー 1200x630 -->
  <rect width="1200" height="630" fill="#1a1a2e"/>
  <text x="600" y="25" text-anchor="middle" fill="#888" font-size="11">OGP画像プレビュー (1200×630px)</text>

  <!-- タイトル -->
  <text x="600" y="70" text-anchor="middle" fill="#fff" font-size="28" font-weight="bold">My Tier List</text>

  <!-- Tier S -->
  <g transform="translate(80, 95)">
    <rect x="0" y="0" width="60" height="60" fill="#FF6B6B" rx="4"/>
    <text x="30" y="38" text-anchor="middle" fill="#fff" font-size="24" font-weight="bold">S</text>
    <rect x="68" y="0" width="972" height="60" fill="#2a2a3e" rx="4"/>
    <rect x="76" y="6" width="48" height="48" rx="3" fill="#444"/>
    <text x="100" y="34" text-anchor="middle" fill="#777" font-size="8">IMG</text>
    <rect x="130" y="6" width="48" height="48" rx="3" fill="#444"/>
    <text x="154" y="34" text-anchor="middle" fill="#777" font-size="8">IMG</text>
    <rect x="184" y="6" width="48" height="48" rx="3" fill="#444"/>
    <text x="208" y="34" text-anchor="middle" fill="#777" font-size="8">IMG</text>
    <text x="280" y="34" fill="#555" font-size="9">... (最大8個)</text>
  </g>

  <!-- Tier A -->
  <g transform="translate(80, 163)">
    <rect x="0" y="0" width="60" height="60" fill="#FFA94D" rx="4"/>
    <text x="30" y="38" text-anchor="middle" fill="#fff" font-size="24" font-weight="bold">A</text>
    <rect x="68" y="0" width="972" height="60" fill="#2a2a3e" rx="4"/>
    <rect x="76" y="6" width="48" height="48" rx="3" fill="#444"/>
    <rect x="130" y="6" width="48" height="48" rx="3" fill="#444"/>
  </g>

  <!-- Tier B -->
  <g transform="translate(80, 231)">
    <rect x="0" y="0" width="60" height="60" fill="#FFD43B" rx="4"/>
    <text x="30" y="38" text-anchor="middle" fill="#333" font-size="24" font-weight="bold">B</text>
    <rect x="68" y="0" width="972" height="60" fill="#2a2a3e" rx="4"/>
    <rect x="76" y="6" width="48" height="48" rx="3" fill="#444"/>
  </g>

  <!-- Tier C -->
  <g transform="translate(80, 299)">
    <rect x="0" y="0" width="60" height="60" fill="#69DB7C" rx="4"/>
    <text x="30" y="38" text-anchor="middle" fill="#333" font-size="24" font-weight="bold">C</text>
    <rect x="68" y="0" width="972" height="60" fill="#2a2a3e" rx="4"/>
  </g>

  <!-- Tier D -->
  <g transform="translate(80, 367)">
    <rect x="0" y="0" width="60" height="60" fill="#74C0FC" rx="4"/>
    <text x="30" y="38" text-anchor="middle" fill="#fff" font-size="24" font-weight="bold">D</text>
    <rect x="68" y="0" width="972" height="60" fill="#2a2a3e" rx="4"/>
  </g>

  <!-- Tier E -->
  <g transform="translate(80, 435)">
    <rect x="0" y="0" width="60" height="60" fill="#B197FC" rx="4"/>
    <text x="30" y="38" text-anchor="middle" fill="#fff" font-size="24" font-weight="bold">E</text>
    <rect x="68" y="0" width="972" height="60" fill="#2a2a3e" rx="4"/>
  </g>

  <!-- ブランドロゴ -->
  <rect x="0" y="530" width="1200" height="100" fill="#16213e"/>
  <text x="600" y="575" text-anchor="middle" fill="#e94560" font-size="22" font-weight="bold">Tier List Maker</text>
  <text x="600" y="600" text-anchor="middle" fill="#555" font-size="12">tier-list-maker.pages.dev</text>
</svg>